# xmcd
#
# Track frame offsets:
#	150
#	16105
#	29813
#	43840
#	58225
#	71193
#	83490
#	99003
#	112665
#	126850
#
# Disc length: 1847 seconds
#
# Revision: 0
# Processed by: cddbd v1.5.1PL0 Copyright (c) Steve Scherf et al.
# Submitted via: dBpowerAMP V4.0
#
DISCID=7c07350a
DTITLE=Conway Twitty - Some Of My Best Vol. 2
DYEAR=1995
DGENRE=Country
TTITLE0=Touch The Hand
TTITLE1=After All The Good Is Gone
TTITLE2=The Games That Daddies Play
TTITLE3=Fifteen Years Ago
TTITLE4=This Time I've Hurt Her More ( Than She Loves Me )
TTITLE5=Linda On My Mind
TTITLE6=( Lost Her Love ) On Our Last Date
TTITLE7=Danny Boy
TTITLE8=Baby's Gone
TTITLE9=I'm Not Through Loving You Yet
EXTD=
EXTT0=
EXTT1=
EXTT2=
EXTT3=
EXTT4=
EXTT5=
EXTT6=
EXTT7=
EXTT8=
EXTT9=
PLAYORDER=
